<mxfile host="app.diagrams.net" modified="2023-11-30T22:07:58.008Z" agent="Mozilla/5.0 (Windows NT 10.0; Win64; x64) AppleWebKit/537.36 (KHTML, like Gecko) Chrome/119.0.0.0 Safari/537.36" etag="p3hENWXQj92Yi3VZ1L2d" version="22.1.5" type="github">
  <diagram name="PÃ¡gina-1" id="wwdtlaOa94DH2NcPzzUv">
    <mxGraphModel dx="1050" dy="557" grid="1" gridSize="10" guides="1" tooltips="1" connect="1" arrows="1" fold="1" page="1" pageScale="1" pageWidth="1100" pageHeight="850" math="0" shadow="0">
      <root>
        <mxCell id="0" />
        <mxCell id="1" parent="0" />
        <mxCell id="vCYvUYp7LnwnH7nSYbP1-1" value="Cliente" style="shape=umlActor;verticalLabelPosition=bottom;verticalAlign=top;html=1;outlineConnect=0;" parent="1" vertex="1">
          <mxGeometry x="200" y="200" width="40" height="80" as="geometry" />
        </mxCell>
        <mxCell id="vCYvUYp7LnwnH7nSYbP1-4" value="" style="rounded=0;whiteSpace=wrap;html=1;fillColor=#ffcccc;strokeColor=#36393d;" parent="1" vertex="1">
          <mxGeometry x="290" y="50" width="320" height="350" as="geometry" />
        </mxCell>
        <mxCell id="vCYvUYp7LnwnH7nSYbP1-5" value="Adicionar Produto&amp;nbsp;" style="ellipse;whiteSpace=wrap;html=1;fillColor=#e1d5e7;strokeColor=#9673a6;" parent="1" vertex="1">
          <mxGeometry x="390" y="110" width="120" height="40" as="geometry" />
        </mxCell>
        <mxCell id="vCYvUYp7LnwnH7nSYbP1-6" value="Verificar Produto" style="ellipse;whiteSpace=wrap;html=1;fillColor=#e1d5e7;strokeColor=#9673a6;" parent="1" vertex="1">
          <mxGeometry x="385" y="205" width="120" height="40" as="geometry" />
        </mxCell>
        <mxCell id="vCYvUYp7LnwnH7nSYbP1-7" value="Cancelar Produto" style="ellipse;whiteSpace=wrap;html=1;fillColor=#e1d5e7;strokeColor=#9673a6;" parent="1" vertex="1">
          <mxGeometry x="390" y="290" width="120" height="40" as="geometry" />
        </mxCell>
        <mxCell id="vCYvUYp7LnwnH7nSYbP1-39" value="Sistema de vendas" style="text;strokeColor=none;align=center;fillColor=none;html=1;verticalAlign=middle;whiteSpace=wrap;rounded=0;" parent="1" vertex="1">
          <mxGeometry x="385" y="360" width="130" height="30" as="geometry" />
        </mxCell>
        <mxCell id="y6h6rt2ylJPFxpsELv1L-3" value="" style="endArrow=classic;html=1;rounded=0;exitX=1;exitY=0.3333333333333333;exitDx=0;exitDy=0;exitPerimeter=0;entryX=0;entryY=0.5;entryDx=0;entryDy=0;" edge="1" parent="1" source="vCYvUYp7LnwnH7nSYbP1-1" target="vCYvUYp7LnwnH7nSYbP1-5">
          <mxGeometry width="50" height="50" relative="1" as="geometry">
            <mxPoint x="510" y="320" as="sourcePoint" />
            <mxPoint x="560" y="270" as="targetPoint" />
            <Array as="points" />
          </mxGeometry>
        </mxCell>
        <mxCell id="y6h6rt2ylJPFxpsELv1L-4" value="" style="endArrow=classic;html=1;rounded=0;entryX=0;entryY=0.5;entryDx=0;entryDy=0;exitX=1;exitY=0.3333333333333333;exitDx=0;exitDy=0;exitPerimeter=0;" edge="1" parent="1" source="vCYvUYp7LnwnH7nSYbP1-1" target="vCYvUYp7LnwnH7nSYbP1-6">
          <mxGeometry width="50" height="50" relative="1" as="geometry">
            <mxPoint x="250" y="220" as="sourcePoint" />
            <mxPoint x="400" y="140" as="targetPoint" />
            <Array as="points" />
          </mxGeometry>
        </mxCell>
        <mxCell id="y6h6rt2ylJPFxpsELv1L-5" value="" style="endArrow=classic;html=1;rounded=0;entryX=0;entryY=0.5;entryDx=0;entryDy=0;" edge="1" parent="1" target="vCYvUYp7LnwnH7nSYbP1-7">
          <mxGeometry width="50" height="50" relative="1" as="geometry">
            <mxPoint x="240" y="230" as="sourcePoint" />
            <mxPoint x="395" y="235" as="targetPoint" />
            <Array as="points" />
          </mxGeometry>
        </mxCell>
      </root>
    </mxGraphModel>
  </diagram>
</mxfile>
